<?xml version="1.0" encoding="UTF-8"?>
<svg xmlns="http://www.w3.org/2000/svg" xmlns:xlink="http://www.w3.org/1999/xlink" width="30px" height="30px" viewBox="0 0 30 30" version="1.1">
<g id="surface1">
<path style=" stroke:none;fill-rule:nonzero;fill:rgb(0.392157%,61.176471%,100%);fill-opacity:1;" d="M 16.574219 30.074219 C 11.050781 30.074219 5.5625 30.074219 0.0742188 30.074219 C 0.0742188 20.074219 0.0742188 10.074219 0.0742188 0.0742188 C 10.074219 0.0742188 20.074219 0.0742188 30.074219 0.0742188 C 30.074219 10.074219 30.074219 20.074219 30.074219 30.074219 C 25.585938 30.074219 21.101562 30.074219 16.574219 30.074219 M 23.621094 8.703125 C 23.621094 8.703125 23.605469 8.71875 23.59375 8.683594 C 23.574219 8.667969 23.550781 8.65625 23.542969 8.628906 C 23.542969 8.628906 23.53125 8.644531 23.519531 8.605469 C 23.5 8.59375 23.476562 8.578125 23.472656 8.558594 C 23.472656 8.558594 23.457031 8.566406 23.457031 8.515625 C 23.367188 8.421875 23.277344 8.328125 23.164062 8.210938 C 23.148438 8.191406 23.128906 8.175781 23.085938 8.136719 C 23.070312 8.121094 23.054688 8.105469 23.011719 8.050781 C 22.960938 8.023438 22.90625 8 22.875 7.949219 C 22.875 7.949219 22.851562 7.972656 22.847656 7.9375 C 22.832031 7.917969 22.816406 7.894531 22.765625 7.847656 C 22.722656 7.832031 22.683594 7.820312 22.648438 7.800781 C 22.648438 7.800781 22.644531 7.808594 22.628906 7.773438 C 22.605469 7.761719 22.585938 7.75 22.574219 7.730469 C 22.574219 7.730469 22.5625 7.738281 22.558594 7.6875 C 22.484375 7.632812 22.410156 7.574219 22.308594 7.472656 C 22.027344 7.300781 21.742188 7.132812 21.417969 6.941406 C 21.375 6.929688 21.332031 6.921875 21.300781 6.898438 C 21.300781 6.898438 21.289062 6.914062 21.277344 6.863281 C 21.136719 6.796875 21 6.726562 20.828125 6.636719 C 20.789062 6.617188 20.753906 6.601562 20.683594 6.539062 C 20.117188 6.359375 19.550781 6.175781 18.933594 5.964844 C 18.84375 5.929688 18.753906 5.878906 18.65625 5.859375 C 17.570312 5.648438 16.472656 5.484375 15.359375 5.574219 C 14.808594 5.621094 14.265625 5.75 13.65625 5.84375 C 13.46875 5.84375 13.273438 5.800781 13.101562 5.851562 C 12.382812 6.058594 11.667969 6.273438 10.964844 6.519531 C 10.566406 6.65625 10.195312 6.863281 9.753906 7.046875 C 9.429688 7.226562 9.101562 7.402344 8.757812 7.601562 C 8.757812 7.601562 8.738281 7.609375 8.6875 7.605469 C 8.617188 7.648438 8.550781 7.691406 8.476562 7.726562 C 8.476562 7.726562 8.484375 7.738281 8.433594 7.734375 C 8.371094 7.78125 8.308594 7.832031 8.234375 7.894531 C 8.234375 7.894531 8.214844 7.898438 8.171875 7.90625 C 8.148438 7.925781 8.128906 7.945312 8.105469 7.957031 C 8.105469 7.957031 8.113281 7.960938 8.0625 7.964844 C 8.027344 7.992188 7.992188 8.019531 7.925781 8.074219 C 7.894531 8.101562 7.867188 8.128906 7.800781 8.164062 C 7.773438 8.1875 7.746094 8.210938 7.671875 8.238281 C 7.640625 8.265625 7.609375 8.296875 7.574219 8.324219 C 7.574219 8.324219 7.574219 8.324219 7.523438 8.332031 C 7.167969 8.582031 6.8125 8.832031 6.453125 9.078125 C 6.453125 9.078125 6.453125 9.082031 6.40625 9.09375 C 6.324219 9.164062 6.246094 9.234375 6.15625 9.304688 C 6.15625 9.304688 6.15625 9.3125 6.117188 9.320312 C 6.09375 9.328125 6.082031 9.347656 6.074219 9.375 C 6.074219 9.375 6.074219 9.375 6.023438 9.386719 C 5.878906 9.511719 5.730469 9.636719 5.539062 9.777344 C 5.519531 9.796875 5.5 9.816406 5.433594 9.855469 C 5.34375 9.941406 5.257812 10.027344 5.171875 10.125 C 5.171875 10.125 5.164062 10.117188 5.121094 10.128906 C 5.042969 10.203125 4.96875 10.277344 4.847656 10.378906 C 4.730469 10.492188 4.617188 10.609375 4.460938 10.734375 C 4.449219 10.757812 4.4375 10.777344 4.421875 10.796875 C 4.421875 10.796875 4.425781 10.800781 4.386719 10.8125 C 4.363281 10.824219 4.351562 10.847656 4.3125 10.886719 C 4.300781 10.90625 4.285156 10.925781 4.226562 10.96875 C 3.964844 11.144531 3.933594 11.34375 4.152344 11.578125 C 4.21875 11.652344 4.269531 11.734375 4.335938 11.835938 C 4.335938 11.835938 4.355469 11.851562 4.359375 11.898438 C 4.433594 12.003906 4.503906 12.105469 4.574219 12.222656 C 4.574219 12.222656 4.585938 12.222656 4.589844 12.273438 C 4.6875 12.40625 4.78125 12.539062 4.875 12.675781 C 4.875 12.675781 4.878906 12.675781 4.886719 12.726562 C 5 12.898438 5.113281 13.070312 5.234375 13.265625 C 5.234375 13.265625 5.253906 13.273438 5.261719 13.324219 C 5.304688 13.367188 5.351562 13.410156 5.417969 13.488281 C 5.53125 13.445312 5.722656 13.429688 5.753906 13.355469 C 5.835938 13.128906 5.917969 12.871094 5.886719 12.644531 C 5.847656 12.351562 5.859375 12.105469 6.039062 11.867188 C 6.101562 11.78125 6.117188 11.660156 6.148438 11.550781 C 6.148438 11.550781 6.15625 11.554688 6.207031 11.542969 C 6.382812 11.320312 6.5625 11.09375 6.75 10.875 C 6.75 10.875 6.742188 10.871094 6.78125 10.855469 C 6.792969 10.832031 6.808594 10.808594 6.835938 10.757812 C 6.847656 10.742188 6.867188 10.730469 6.925781 10.707031 C 6.941406 10.6875 6.957031 10.664062 6.972656 10.648438 C 6.972656 10.648438 6.96875 10.644531 7.003906 10.632812 C 7.019531 10.609375 7.03125 10.589844 7.046875 10.574219 C 7.046875 10.574219 7.042969 10.570312 7.09375 10.5625 C 7.152344 10.492188 7.214844 10.417969 7.273438 10.351562 C 7.273438 10.351562 7.273438 10.347656 7.324219 10.347656 C 7.398438 10.265625 7.472656 10.183594 7.550781 10.101562 C 7.550781 10.101562 7.550781 10.097656 7.601562 10.097656 C 7.667969 10.03125 7.734375 9.964844 7.800781 9.898438 C 7.800781 9.898438 7.796875 9.898438 7.851562 9.921875 C 7.890625 10.09375 7.960938 10.269531 7.960938 10.441406 C 7.964844 14.734375 7.960938 19.023438 7.972656 23.316406 C 7.972656 23.765625 7.945312 24.152344 7.519531 24.402344 C 7.519531 24.402344 7.515625 24.402344 7.460938 24.394531 C 7.152344 24.429688 6.972656 24.601562 7.003906 24.914062 C 7.027344 25.214844 7.238281 25.332031 7.527344 25.332031 C 8.6875 25.332031 9.847656 25.339844 11.007812 25.320312 C 11.148438 25.316406 11.335938 25.167969 11.414062 25.035156 C 11.53125 24.835938 11.476562 24.621094 11.25 24.492188 C 11.101562 24.402344 10.921875 24.34375 10.804688 24.226562 C 10.671875 24.097656 10.519531 23.917969 10.511719 23.753906 C 10.480469 22.933594 10.5 22.109375 10.496094 21.285156 C 10.492188 21.039062 10.578125 21 10.820312 21.058594 C 11.941406 21.34375 13.0625 21.625 14.195312 21.855469 C 14.546875 21.929688 14.933594 21.851562 15.363281 21.839844 C 15.441406 21.84375 15.515625 21.847656 15.628906 21.898438 C 16.410156 21.863281 17.191406 21.832031 17.972656 21.796875 C 18.007812 21.792969 18.042969 21.734375 18.125 21.6875 C 18.160156 21.683594 18.191406 21.683594 18.277344 21.707031 C 18.628906 21.613281 18.980469 21.519531 19.332031 21.425781 C 19.332031 21.425781 19.335938 21.425781 19.398438 21.4375 C 19.519531 21.425781 19.65625 21.433594 19.765625 21.390625 C 20.359375 21.144531 20.976562 20.929688 21.539062 20.617188 C 21.980469 20.375 22.355469 20.003906 22.761719 19.683594 C 22.761719 19.683594 22.769531 19.679688 22.824219 19.6875 C 23.25 19.644531 23.34375 19.25 23.613281 18.972656 C 23.660156 18.894531 23.710938 18.816406 23.773438 18.746094 C 23.773438 18.746094 23.761719 18.738281 23.796875 18.722656 C 23.808594 18.699219 23.820312 18.675781 23.847656 18.675781 C 23.847656 18.675781 23.828125 18.65625 23.882812 18.652344 C 23.96875 18.558594 24.054688 18.460938 24.191406 18.351562 C 24.359375 18.066406 24.523438 17.777344 24.722656 17.449219 C 24.808594 17.257812 24.890625 17.0625 24.976562 16.875 C 24.976562 16.875 24.972656 16.875 24.996094 16.839844 C 25.003906 16.8125 25.007812 16.785156 25.019531 16.734375 C 25.019531 16.734375 25.035156 16.71875 25.078125 16.691406 C 25.460938 16.144531 25.589844 15.492188 25.613281 14.863281 C 25.644531 13.925781 25.585938 12.976562 25.457031 12.042969 C 25.394531 11.558594 25.105469 11.101562 24.902344 10.597656 C 24.878906 10.5625 24.859375 10.527344 24.828125 10.445312 C 24.785156 10.40625 24.746094 10.367188 24.695312 10.320312 C 24.695312 10.320312 24.695312 10.304688 24.707031 10.265625 C 24.699219 10.238281 24.695312 10.214844 24.675781 10.148438 C 24.652344 10.113281 24.632812 10.078125 24.597656 9.996094 C 24.554688 9.933594 24.511719 9.871094 24.457031 9.757812 C 24.382812 9.652344 24.308594 9.542969 24.21875 9.394531 C 24.152344 9.308594 24.082031 9.222656 23.996094 9.089844 C 23.921875 9.035156 23.851562 8.980469 23.773438 8.925781 C 23.773438 8.925781 23.773438 8.921875 23.769531 8.878906 C 23.738281 8.855469 23.703125 8.828125 23.679688 8.792969 C 23.679688 8.792969 23.667969 8.800781 23.660156 8.761719 C 23.648438 8.738281 23.628906 8.722656 23.621094 8.703125 Z M 23.621094 8.703125 "/>
<path style=" stroke:none;fill-rule:nonzero;fill:rgb(97.647059%,99.607843%,99.607843%);fill-opacity:1;" d="M 15.59375 21.851562 C 15.515625 21.847656 15.441406 21.84375 15.304688 21.832031 C 13.605469 21.703125 12.015625 21.351562 10.464844 20.808594 C 10.4375 20.882812 10.410156 20.914062 10.410156 20.949219 C 10.410156 21.972656 10.402344 22.996094 10.414062 24.023438 C 10.417969 24.117188 10.542969 24.234375 10.640625 24.300781 C 10.835938 24.429688 11.066406 24.511719 11.246094 24.65625 C 11.320312 24.71875 11.34375 24.914062 11.308594 25.023438 C 11.28125 25.101562 11.121094 25.183594 11.019531 25.183594 C 9.832031 25.195312 8.644531 25.199219 7.457031 25.183594 C 7.347656 25.183594 7.167969 25.085938 7.148438 25 C 7.117188 24.882812 7.183594 24.71875 7.253906 24.605469 C 7.308594 24.515625 7.425781 24.46875 7.515625 24.402344 C 7.515625 24.402344 7.519531 24.402344 7.550781 24.398438 C 7.820312 24.300781 8.097656 24.304688 8.09375 23.894531 C 8.078125 19.269531 8.085938 14.644531 8.082031 10.019531 C 8.082031 9.925781 8.0625 9.832031 8.046875 9.667969 C 7.933594 9.773438 7.863281 9.835938 7.796875 9.898438 C 7.796875 9.898438 7.800781 9.898438 7.773438 9.902344 C 7.683594 9.96875 7.617188 10.035156 7.550781 10.097656 C 7.550781 10.097656 7.550781 10.101562 7.527344 10.105469 C 7.425781 10.191406 7.347656 10.269531 7.273438 10.347656 C 7.273438 10.347656 7.273438 10.351562 7.25 10.355469 C 7.164062 10.429688 7.105469 10.5 7.042969 10.570312 C 7.042969 10.570312 7.046875 10.574219 7.027344 10.578125 C 6.992188 10.601562 6.980469 10.621094 6.96875 10.644531 C 6.96875 10.644531 6.972656 10.648438 6.953125 10.652344 C 6.914062 10.675781 6.902344 10.699219 6.886719 10.722656 C 6.867188 10.730469 6.847656 10.742188 6.808594 10.78125 C 6.769531 10.824219 6.753906 10.847656 6.742188 10.871094 C 6.742188 10.871094 6.75 10.875 6.722656 10.878906 C 6.515625 11.109375 6.335938 11.332031 6.15625 11.554688 C 6.15625 11.554688 6.148438 11.550781 6.128906 11.566406 C 5.828125 11.910156 5.671875 12.25 5.792969 12.71875 C 5.84375 12.90625 5.660156 13.152344 5.554688 13.363281 C 5.4375 13.328125 5.34375 13.300781 5.253906 13.273438 C 5.253906 13.273438 5.234375 13.265625 5.234375 13.222656 C 5.117188 13.011719 4.996094 12.84375 4.878906 12.675781 C 4.878906 12.675781 4.875 12.675781 4.871094 12.644531 C 4.773438 12.484375 4.679688 12.355469 4.585938 12.222656 C 4.585938 12.222656 4.574219 12.222656 4.574219 12.191406 C 4.5 12.058594 4.425781 11.953125 4.355469 11.851562 C 4.355469 11.851562 4.335938 11.835938 4.335938 11.796875 C 4.316406 11.484375 4.292969 11.214844 4.273438 10.949219 C 4.285156 10.925781 4.300781 10.90625 4.347656 10.871094 C 4.402344 10.84375 4.417969 10.824219 4.425781 10.800781 C 4.425781 10.800781 4.421875 10.796875 4.441406 10.792969 C 4.480469 10.769531 4.492188 10.75 4.5 10.726562 C 4.617188 10.609375 4.730469 10.492188 4.894531 10.367188 C 5.132812 10.390625 5.195312 10.296875 5.164062 10.117188 C 5.164062 10.117188 5.171875 10.125 5.195312 10.121094 C 5.308594 10.023438 5.394531 9.933594 5.480469 9.839844 C 5.5 9.816406 5.519531 9.796875 5.585938 9.765625 C 5.78125 9.628906 5.925781 9.503906 6.074219 9.375 C 6.074219 9.375 6.074219 9.375 6.09375 9.371094 C 6.128906 9.351562 6.144531 9.335938 6.15625 9.3125 C 6.15625 9.3125 6.15625 9.304688 6.183594 9.304688 C 6.292969 9.230469 6.375 9.15625 6.453125 9.082031 C 6.453125 9.082031 6.453125 9.078125 6.484375 9.078125 C 6.867188 8.828125 7.222656 8.578125 7.574219 8.324219 C 7.574219 8.324219 7.574219 8.324219 7.597656 8.320312 C 7.652344 8.289062 7.683594 8.261719 7.71875 8.234375 C 7.746094 8.210938 7.773438 8.1875 7.84375 8.164062 C 7.933594 8.121094 7.980469 8.085938 8.046875 8.039062 C 8.078125 8.003906 8.09375 7.984375 8.113281 7.960938 C 8.113281 7.960938 8.105469 7.957031 8.128906 7.957031 C 8.171875 7.9375 8.195312 7.917969 8.214844 7.898438 C 8.214844 7.898438 8.234375 7.894531 8.265625 7.886719 C 8.359375 7.832031 8.421875 7.785156 8.484375 7.738281 C 8.484375 7.738281 8.476562 7.726562 8.503906 7.730469 C 8.5625 7.734375 8.59375 7.726562 8.644531 7.734375 C 8.777344 7.671875 8.890625 7.59375 9.023438 7.503906 C 9.097656 7.464844 9.152344 7.441406 9.226562 7.414062 C 9.265625 7.398438 9.285156 7.386719 9.316406 7.359375 C 9.328125 7.351562 9.359375 7.34375 9.375 7.339844 C 9.417969 7.324219 9.4375 7.3125 9.46875 7.285156 C 9.484375 7.277344 9.515625 7.273438 9.539062 7.269531 C 9.601562 7.246094 9.636719 7.21875 9.6875 7.179688 C 9.742188 7.152344 9.78125 7.136719 9.84375 7.121094 C 9.902344 7.097656 9.941406 7.078125 9.996094 7.039062 C 10.253906 6.929688 10.484375 6.839844 10.742188 6.746094 C 10.800781 6.722656 10.839844 6.703125 10.890625 6.679688 C 10.90625 6.671875 10.9375 6.667969 10.960938 6.667969 C 11.023438 6.648438 11.0625 6.628906 11.113281 6.601562 C 11.125 6.59375 11.152344 6.589844 11.167969 6.585938 C 11.210938 6.578125 11.234375 6.5625 11.273438 6.539062 C 11.320312 6.527344 11.351562 6.519531 11.398438 6.515625 C 11.4375 6.503906 11.460938 6.492188 11.496094 6.464844 C 11.542969 6.453125 11.570312 6.445312 11.617188 6.4375 C 11.660156 6.421875 11.679688 6.410156 11.726562 6.386719 C 11.78125 6.375 11.8125 6.367188 11.855469 6.375 C 11.914062 6.363281 11.957031 6.335938 12.023438 6.300781 C 12.105469 6.277344 12.164062 6.261719 12.246094 6.257812 C 12.378906 6.230469 12.488281 6.195312 12.617188 6.148438 C 12.628906 6.144531 12.660156 6.144531 12.683594 6.144531 C 12.746094 6.128906 12.785156 6.109375 12.847656 6.085938 C 12.90625 6.078125 12.9375 6.074219 12.988281 6.085938 C 13.097656 6.066406 13.1875 6.035156 13.296875 5.992188 C 13.363281 5.976562 13.40625 5.976562 13.476562 5.976562 C 13.523438 5.964844 13.550781 5.953125 13.601562 5.9375 C 13.65625 5.929688 13.691406 5.929688 13.742188 5.9375 C 13.875 5.921875 13.988281 5.890625 14.125 5.855469 C 14.203125 5.847656 14.253906 5.84375 14.332031 5.84375 C 14.449219 5.828125 14.535156 5.8125 14.65625 5.789062 C 14.816406 5.777344 14.941406 5.773438 15.097656 5.785156 C 15.757812 5.789062 16.394531 5.78125 17.058594 5.765625 C 17.140625 5.769531 17.195312 5.777344 17.273438 5.796875 C 17.421875 5.820312 17.539062 5.828125 17.6875 5.832031 C 17.8125 5.84375 17.90625 5.855469 18.019531 5.882812 C 18.105469 5.902344 18.171875 5.910156 18.257812 5.917969 C 18.3125 5.925781 18.34375 5.929688 18.394531 5.949219 C 18.484375 5.972656 18.546875 5.984375 18.628906 5.992188 C 18.644531 5.996094 18.671875 6.007812 18.683594 6.03125 C 18.855469 6.082031 19.011719 6.101562 19.1875 6.125 C 19.230469 6.128906 19.253906 6.140625 19.285156 6.179688 C 19.445312 6.234375 19.589844 6.261719 19.753906 6.296875 C 19.769531 6.296875 19.800781 6.3125 19.816406 6.324219 C 19.875 6.351562 19.914062 6.359375 19.980469 6.375 C 20.058594 6.402344 20.117188 6.429688 20.191406 6.46875 C 20.25 6.496094 20.292969 6.507812 20.351562 6.523438 C 20.367188 6.523438 20.398438 6.539062 20.414062 6.550781 C 20.460938 6.570312 20.484375 6.578125 20.523438 6.585938 C 20.535156 6.585938 20.550781 6.597656 20.558594 6.625 C 20.714844 6.707031 20.863281 6.765625 21.03125 6.824219 C 21.132812 6.859375 21.210938 6.886719 21.289062 6.914062 C 21.289062 6.914062 21.300781 6.898438 21.304688 6.925781 C 21.328125 6.964844 21.347656 6.980469 21.375 7.023438 C 21.480469 7.097656 21.582031 7.148438 21.707031 7.207031 C 21.808594 7.265625 21.890625 7.316406 21.984375 7.382812 C 22.011719 7.410156 22.027344 7.421875 22.050781 7.425781 C 22.050781 7.425781 22.050781 7.425781 22.0625 7.4375 C 22.09375 7.464844 22.117188 7.480469 22.136719 7.488281 C 22.132812 7.488281 22.136719 7.484375 22.140625 7.511719 C 22.246094 7.597656 22.347656 7.652344 22.46875 7.71875 C 22.511719 7.730469 22.539062 7.734375 22.5625 7.738281 C 22.5625 7.738281 22.574219 7.730469 22.574219 7.753906 C 22.597656 7.785156 22.621094 7.796875 22.644531 7.808594 C 22.644531 7.808594 22.648438 7.800781 22.644531 7.820312 C 22.640625 7.839844 22.648438 7.875 22.660156 7.890625 C 22.699219 7.925781 22.730469 7.941406 22.785156 7.964844 C 22.820312 7.972656 22.835938 7.972656 22.851562 7.972656 C 22.851562 7.972656 22.875 7.949219 22.871094 7.984375 C 22.894531 8.050781 22.921875 8.085938 22.957031 8.132812 C 22.976562 8.160156 22.992188 8.171875 23.015625 8.179688 C 23.019531 8.179688 23.019531 8.1875 23.023438 8.210938 C 23.097656 8.292969 23.171875 8.347656 23.25 8.402344 C 23.25 8.402344 23.25 8.40625 23.257812 8.417969 C 23.28125 8.453125 23.300781 8.46875 23.324219 8.476562 C 23.324219 8.476562 23.324219 8.476562 23.332031 8.492188 C 23.351562 8.527344 23.371094 8.542969 23.40625 8.558594 C 23.425781 8.566406 23.457031 8.566406 23.457031 8.566406 C 23.457031 8.566406 23.472656 8.558594 23.46875 8.582031 C 23.488281 8.617188 23.511719 8.628906 23.53125 8.644531 C 23.53125 8.644531 23.542969 8.628906 23.542969 8.65625 C 23.5625 8.695312 23.582031 8.707031 23.605469 8.71875 C 23.605469 8.71875 23.621094 8.703125 23.617188 8.730469 C 23.628906 8.769531 23.648438 8.785156 23.667969 8.800781 C 23.667969 8.800781 23.679688 8.792969 23.679688 8.816406 C 23.710938 8.871094 23.742188 8.898438 23.773438 8.921875 C 23.773438 8.921875 23.773438 8.925781 23.773438 8.941406 C 23.773438 8.960938 23.777344 8.992188 23.785156 9.007812 C 23.808594 9.046875 23.824219 9.0625 23.847656 9.074219 C 23.851562 9.074219 23.847656 9.078125 23.855469 9.09375 C 23.875 9.128906 23.890625 9.144531 23.914062 9.15625 C 23.917969 9.15625 23.917969 9.164062 23.925781 9.179688 C 23.941406 9.207031 23.957031 9.21875 23.984375 9.238281 C 23.996094 9.25 24.007812 9.28125 24.015625 9.300781 C 24.039062 9.335938 24.058594 9.355469 24.074219 9.375 C 24.074219 9.375 24.078125 9.375 24.078125 9.402344 C 24.160156 9.527344 24.242188 9.628906 24.316406 9.730469 C 24.308594 9.730469 24.324219 9.730469 24.320312 9.757812 C 24.367188 9.84375 24.417969 9.90625 24.480469 9.976562 C 24.511719 10.007812 24.519531 10.03125 24.523438 10.078125 C 24.550781 10.132812 24.578125 10.164062 24.601562 10.199219 C 24.601562 10.199219 24.601562 10.199219 24.605469 10.214844 C 24.617188 10.25 24.632812 10.265625 24.660156 10.289062 C 24.671875 10.296875 24.695312 10.304688 24.695312 10.304688 C 24.695312 10.304688 24.695312 10.320312 24.703125 10.34375 C 24.726562 10.414062 24.738281 10.453125 24.75 10.523438 C 24.796875 10.632812 24.847656 10.714844 24.902344 10.808594 C 24.910156 10.820312 24.917969 10.84375 24.914062 10.875 C 24.960938 11.019531 25.011719 11.128906 25.0625 11.242188 C 25.058594 11.246094 25.058594 11.238281 25.0625 11.257812 C 25.074219 11.292969 25.085938 11.3125 25.113281 11.347656 C 25.125 11.394531 25.128906 11.425781 25.136719 11.476562 C 25.15625 11.542969 25.175781 11.585938 25.199219 11.636719 C 25.207031 11.648438 25.210938 11.675781 25.210938 11.699219 C 25.226562 11.765625 25.246094 11.808594 25.269531 11.867188 C 25.277344 11.882812 25.277344 11.917969 25.277344 11.941406 C 25.292969 12 25.308594 12.039062 25.335938 12.097656 C 25.351562 12.171875 25.359375 12.222656 25.363281 12.296875 C 25.375 12.363281 25.390625 12.40625 25.414062 12.476562 C 25.425781 12.558594 25.429688 12.613281 25.417969 12.683594 C 25.429688 12.765625 25.457031 12.835938 25.488281 12.933594 C 25.5 13.128906 25.507812 13.292969 25.511719 13.496094 C 25.507812 13.878906 25.507812 14.226562 25.511719 14.597656 C 25.503906 14.703125 25.496094 14.777344 25.472656 14.867188 C 25.449219 14.972656 25.4375 15.0625 25.429688 15.179688 C 25.425781 15.234375 25.417969 15.265625 25.398438 15.320312 C 25.378906 15.410156 25.371094 15.480469 25.363281 15.570312 C 25.351562 15.617188 25.34375 15.648438 25.320312 15.691406 C 25.296875 15.753906 25.289062 15.796875 25.28125 15.863281 C 25.273438 15.914062 25.261719 15.945312 25.242188 15.988281 C 25.226562 16.03125 25.21875 16.054688 25.210938 16.09375 C 25.210938 16.105469 25.199219 16.125 25.183594 16.140625 C 25.15625 16.207031 25.148438 16.253906 25.136719 16.3125 C 25.132812 16.324219 25.121094 16.347656 25.109375 16.363281 C 25.082031 16.421875 25.070312 16.464844 25.058594 16.503906 C 25.058594 16.503906 25.0625 16.507812 25.035156 16.515625 C 24.976562 16.648438 24.941406 16.769531 24.902344 16.914062 C 24.867188 16.992188 24.839844 17.042969 24.796875 17.113281 C 24.769531 17.144531 24.761719 17.167969 24.753906 17.207031 C 24.75 17.222656 24.734375 17.25 24.722656 17.261719 C 24.695312 17.292969 24.683594 17.316406 24.675781 17.355469 C 24.671875 17.371094 24.65625 17.398438 24.644531 17.410156 C 24.617188 17.441406 24.609375 17.460938 24.597656 17.5 C 24.59375 17.519531 24.574219 17.550781 24.5625 17.558594 C 24.535156 17.585938 24.527344 17.601562 24.519531 17.644531 C 24.484375 17.703125 24.460938 17.738281 24.421875 17.785156 C 24.390625 17.808594 24.378906 17.828125 24.375 17.851562 C 24.375 17.851562 24.375 17.851562 24.359375 17.863281 C 24.332031 17.90625 24.324219 17.929688 24.308594 17.96875 C 24.304688 17.980469 24.285156 18 24.273438 18.011719 C 24.246094 18.035156 24.234375 18.054688 24.226562 18.078125 C 24.226562 18.074219 24.226562 18.078125 24.210938 18.085938 C 24.179688 18.113281 24.164062 18.132812 24.15625 18.15625 C 24.15625 18.152344 24.160156 18.15625 24.132812 18.160156 C 24.023438 18.292969 23.945312 18.421875 23.855469 18.570312 C 23.832031 18.605469 23.828125 18.628906 23.828125 18.65625 C 23.828125 18.65625 23.847656 18.675781 23.820312 18.671875 C 23.78125 18.691406 23.769531 18.714844 23.761719 18.738281 C 23.761719 18.738281 23.773438 18.746094 23.746094 18.746094 C 23.6875 18.773438 23.65625 18.800781 23.605469 18.832031 C 23.574219 18.859375 23.558594 18.878906 23.550781 18.902344 C 23.550781 18.898438 23.550781 18.902344 23.535156 18.910156 C 23.507812 18.941406 23.492188 18.960938 23.464844 19.003906 C 23.226562 19.246094 23 19.460938 22.769531 19.679688 C 22.769531 19.679688 22.761719 19.683594 22.734375 19.695312 C 21.699219 20.5 20.546875 21.019531 19.335938 21.425781 C 19.335938 21.425781 19.332031 21.425781 19.300781 21.425781 C 18.921875 21.511719 18.574219 21.597656 18.226562 21.679688 C 18.191406 21.683594 18.160156 21.683594 18.070312 21.691406 C 17.210938 21.75 16.402344 21.800781 15.59375 21.851562 M 18.132812 20.132812 C 21.152344 19.074219 22.800781 16.632812 22.652344 13.433594 C 22.503906 10.3125 20.558594 7.828125 17.625 7.160156 C 15.21875 6.609375 12.945312 7.105469 10.792969 8.269531 C 10.519531 8.414062 10.414062 8.589844 10.414062 8.914062 C 10.429688 12.234375 10.433594 15.558594 10.410156 18.878906 C 10.40625 19.335938 10.558594 19.546875 10.972656 19.6875 C 13.300781 20.46875 15.65625 20.789062 18.132812 20.132812 Z M 18.132812 20.132812 "/>
<path style=" stroke:none;fill-rule:nonzero;fill:rgb(28.235294%,66.666667%,92.156863%);fill-opacity:1;" d="M 7.824219 9.910156 C 7.863281 9.835938 7.933594 9.773438 8.046875 9.667969 C 8.0625 9.832031 8.082031 9.925781 8.082031 10.019531 C 8.085938 14.644531 8.078125 19.269531 8.09375 23.894531 C 8.097656 24.304688 7.820312 24.300781 7.550781 24.398438 C 7.945312 24.152344 7.972656 23.765625 7.972656 23.316406 C 7.960938 19.023438 7.964844 14.734375 7.960938 10.441406 C 7.960938 10.269531 7.890625 10.09375 7.824219 9.910156 Z M 7.824219 9.910156 "/>
<path style=" stroke:none;fill-rule:nonzero;fill:rgb(28.235294%,66.666667%,92.156863%);fill-opacity:1;" d="M 7.488281 24.398438 C 7.425781 24.46875 7.308594 24.515625 7.253906 24.605469 C 7.183594 24.71875 7.117188 24.882812 7.148438 25 C 7.167969 25.085938 7.347656 25.183594 7.457031 25.183594 C 8.644531 25.199219 9.832031 25.195312 11.019531 25.183594 C 11.121094 25.183594 11.28125 25.101562 11.308594 25.023438 C 11.34375 24.914062 11.320312 24.71875 11.246094 24.65625 C 11.066406 24.511719 10.835938 24.429688 10.640625 24.300781 C 10.542969 24.234375 10.417969 24.117188 10.414062 24.023438 C 10.402344 22.996094 10.410156 21.972656 10.410156 20.949219 C 10.410156 20.914062 10.4375 20.882812 10.464844 20.808594 C 12.015625 21.351562 13.605469 21.703125 15.273438 21.832031 C 14.933594 21.851562 14.546875 21.929688 14.195312 21.855469 C 13.0625 21.625 11.941406 21.34375 10.820312 21.058594 C 10.578125 21 10.492188 21.039062 10.496094 21.285156 C 10.5 22.109375 10.480469 22.933594 10.511719 23.753906 C 10.519531 23.917969 10.671875 24.097656 10.804688 24.226562 C 10.921875 24.34375 11.101562 24.402344 11.25 24.492188 C 11.476562 24.621094 11.53125 24.835938 11.414062 25.035156 C 11.335938 25.167969 11.148438 25.316406 11.007812 25.320312 C 9.847656 25.339844 8.6875 25.332031 7.527344 25.332031 C 7.238281 25.332031 7.027344 25.214844 7.003906 24.914062 C 6.972656 24.601562 7.152344 24.429688 7.488281 24.398438 Z M 7.488281 24.398438 "/>
<path style=" stroke:none;fill-rule:nonzero;fill:rgb(28.235294%,66.666667%,92.156863%);fill-opacity:1;" d="M 25.136719 11.453125 C 25.128906 11.425781 25.125 11.394531 25.113281 11.328125 C 25.097656 11.265625 25.085938 11.246094 25.058594 11.238281 C 25.058594 11.238281 25.058594 11.246094 25.058594 11.21875 C 25.011719 11.074219 24.964844 10.957031 24.917969 10.84375 C 24.917969 10.84375 24.910156 10.820312 24.902344 10.789062 C 24.890625 10.726562 24.882812 10.695312 24.886719 10.660156 C 24.898438 10.652344 24.917969 10.636719 24.917969 10.636719 C 25.105469 11.101562 25.394531 11.558594 25.457031 12.042969 C 25.585938 12.976562 25.644531 13.925781 25.613281 14.863281 C 25.589844 15.492188 25.460938 16.144531 25.058594 16.679688 C 25.042969 16.613281 25.050781 16.558594 25.0625 16.507812 C 25.0625 16.507812 25.058594 16.503906 25.078125 16.492188 C 25.101562 16.433594 25.113281 16.390625 25.121094 16.347656 C 25.121094 16.347656 25.132812 16.324219 25.152344 16.296875 C 25.179688 16.21875 25.1875 16.171875 25.199219 16.125 C 25.199219 16.125 25.210938 16.105469 25.226562 16.078125 C 25.246094 16.027344 25.25 16 25.253906 15.972656 C 25.261719 15.945312 25.273438 15.914062 25.296875 15.847656 C 25.316406 15.761719 25.324219 15.71875 25.332031 15.675781 C 25.34375 15.648438 25.351562 15.617188 25.375 15.546875 C 25.398438 15.433594 25.40625 15.367188 25.410156 15.296875 C 25.417969 15.265625 25.425781 15.234375 25.445312 15.15625 C 25.464844 15.023438 25.476562 14.9375 25.484375 14.851562 C 25.496094 14.777344 25.503906 14.703125 25.523438 14.570312 C 25.53125 14.160156 25.523438 13.808594 25.515625 13.460938 C 25.507812 13.292969 25.5 13.128906 25.488281 12.90625 C 25.46875 12.792969 25.449219 12.730469 25.433594 12.671875 C 25.429688 12.613281 25.425781 12.558594 25.414062 12.453125 C 25.394531 12.359375 25.378906 12.316406 25.367188 12.269531 C 25.359375 12.222656 25.351562 12.171875 25.335938 12.078125 C 25.3125 11.996094 25.292969 11.957031 25.277344 11.917969 C 25.277344 11.917969 25.277344 11.882812 25.273438 11.84375 C 25.25 11.761719 25.230469 11.71875 25.210938 11.675781 C 25.210938 11.675781 25.207031 11.648438 25.203125 11.613281 C 25.175781 11.535156 25.15625 11.496094 25.136719 11.453125 Z M 25.136719 11.453125 "/>
<path style=" stroke:none;fill-rule:nonzero;fill:rgb(28.235294%,66.666667%,92.156863%);fill-opacity:1;" d="M 18.375 5.9375 C 18.34375 5.929688 18.3125 5.925781 18.238281 5.90625 C 18.128906 5.886719 18.066406 5.875 18 5.867188 C 17.90625 5.855469 17.8125 5.84375 17.660156 5.816406 C 17.488281 5.796875 17.367188 5.792969 17.25 5.785156 C 17.195312 5.777344 17.140625 5.769531 17.027344 5.753906 C 16.339844 5.75 15.703125 5.757812 15.070312 5.769531 C 14.941406 5.773438 14.816406 5.777344 14.628906 5.78125 C 14.480469 5.800781 14.394531 5.820312 14.304688 5.839844 C 14.253906 5.84375 14.203125 5.847656 14.097656 5.851562 C 13.945312 5.863281 13.847656 5.871094 13.742188 5.871094 C 13.734375 5.859375 13.714844 5.839844 13.714844 5.839844 C 14.265625 5.75 14.808594 5.621094 15.359375 5.574219 C 16.472656 5.484375 17.570312 5.648438 18.65625 5.859375 C 18.753906 5.878906 18.84375 5.929688 18.949219 5.988281 C 18.964844 6.011719 18.949219 6.03125 18.921875 6.027344 C 18.820312 6.019531 18.746094 6.015625 18.671875 6.007812 C 18.671875 6.007812 18.644531 5.996094 18.609375 5.980469 C 18.507812 5.953125 18.441406 5.945312 18.375 5.9375 Z M 18.375 5.9375 "/>
<path style=" stroke:none;fill-rule:nonzero;fill:rgb(28.235294%,66.666667%,92.156863%);fill-opacity:1;" d="M 19.367188 21.433594 C 20.546875 21.019531 21.699219 20.5 22.734375 19.699219 C 22.355469 20.003906 21.980469 20.375 21.539062 20.617188 C 20.976562 20.929688 20.359375 21.144531 19.765625 21.390625 C 19.65625 21.433594 19.519531 21.425781 19.367188 21.433594 Z M 19.367188 21.433594 "/>
<path style=" stroke:none;fill-rule:nonzero;fill:rgb(28.235294%,66.666667%,92.156863%);fill-opacity:1;" d="M 11.152344 6.589844 C 11.152344 6.589844 11.125 6.59375 11.089844 6.601562 C 11.015625 6.628906 10.976562 6.648438 10.9375 6.667969 C 10.9375 6.667969 10.90625 6.671875 10.867188 6.679688 C 10.792969 6.703125 10.757812 6.726562 10.71875 6.746094 C 10.484375 6.839844 10.253906 6.929688 9.976562 7.039062 C 9.902344 7.0625 9.875 7.066406 9.835938 7.0625 C 9.828125 7.054688 9.8125 7.035156 9.8125 7.035156 C 10.195312 6.863281 10.566406 6.65625 10.964844 6.519531 C 11.667969 6.273438 12.382812 6.058594 13.101562 5.851562 C 13.273438 5.800781 13.46875 5.84375 13.6875 5.84375 C 13.714844 5.839844 13.734375 5.859375 13.734375 5.882812 C 13.734375 5.902344 13.722656 5.925781 13.722656 5.925781 C 13.691406 5.929688 13.65625 5.929688 13.578125 5.933594 C 13.503906 5.949219 13.480469 5.964844 13.453125 5.976562 C 13.40625 5.976562 13.363281 5.976562 13.269531 5.988281 C 13.140625 6.023438 13.054688 6.046875 12.972656 6.070312 C 12.9375 6.074219 12.90625 6.078125 12.828125 6.085938 C 12.742188 6.105469 12.699219 6.125 12.660156 6.144531 C 12.660156 6.144531 12.628906 6.144531 12.585938 6.148438 C 12.4375 6.183594 12.332031 6.214844 12.226562 6.25 C 12.164062 6.261719 12.105469 6.277344 12 6.300781 C 11.921875 6.324219 11.882812 6.34375 11.84375 6.363281 C 11.8125 6.367188 11.78125 6.375 11.707031 6.386719 C 11.640625 6.410156 11.621094 6.425781 11.601562 6.441406 C 11.570312 6.445312 11.542969 6.453125 11.476562 6.464844 C 11.417969 6.488281 11.398438 6.503906 11.378906 6.515625 C 11.351562 6.519531 11.320312 6.527344 11.253906 6.539062 C 11.191406 6.5625 11.171875 6.574219 11.152344 6.589844 Z M 11.152344 6.589844 "/>
<path style=" stroke:none;fill-rule:nonzero;fill:rgb(28.235294%,66.666667%,92.156863%);fill-opacity:1;" d="M 15.609375 21.875 C 16.402344 21.800781 17.210938 21.75 18.046875 21.699219 C 18.042969 21.734375 18.007812 21.792969 17.972656 21.796875 C 17.191406 21.832031 16.410156 21.863281 15.609375 21.875 Z M 15.609375 21.875 "/>
<path style=" stroke:none;fill-rule:nonzero;fill:rgb(28.235294%,66.666667%,92.156863%);fill-opacity:1;" d="M 5.582031 13.367188 C 5.660156 13.152344 5.84375 12.90625 5.792969 12.71875 C 5.671875 12.25 5.828125 11.910156 6.132812 11.566406 C 6.117188 11.660156 6.101562 11.78125 6.039062 11.867188 C 5.859375 12.105469 5.847656 12.351562 5.886719 12.644531 C 5.917969 12.871094 5.835938 13.128906 5.753906 13.355469 C 5.722656 13.429688 5.53125 13.445312 5.429688 13.460938 C 5.492188 13.414062 5.535156 13.390625 5.582031 13.367188 Z M 5.582031 13.367188 "/>
<path style=" stroke:none;fill-rule:nonzero;fill:rgb(28.235294%,66.666667%,92.156863%);fill-opacity:1;" d="M 19.800781 6.3125 C 19.800781 6.3125 19.769531 6.296875 19.734375 6.277344 C 19.554688 6.222656 19.414062 6.1875 19.273438 6.152344 C 19.253906 6.140625 19.230469 6.128906 19.167969 6.109375 C 19.070312 6.074219 19.011719 6.054688 18.949219 6.03125 C 18.949219 6.03125 18.964844 6.011719 18.972656 6 C 19.550781 6.175781 20.117188 6.359375 20.691406 6.570312 C 20.699219 6.601562 20.6875 6.617188 20.664062 6.613281 C 20.609375 6.605469 20.582031 6.601562 20.550781 6.597656 C 20.550781 6.597656 20.535156 6.585938 20.507812 6.570312 C 20.453125 6.550781 20.425781 6.542969 20.398438 6.539062 C 20.398438 6.539062 20.367188 6.523438 20.335938 6.503906 C 20.261719 6.476562 20.21875 6.464844 20.175781 6.453125 C 20.117188 6.429688 20.058594 6.402344 19.964844 6.359375 C 19.882812 6.332031 19.839844 6.320312 19.800781 6.3125 Z M 19.800781 6.3125 "/>
<path style=" stroke:none;fill-rule:nonzero;fill:rgb(83.921569%,97.254902%,100%);fill-opacity:1;" d="M 7.550781 8.328125 C 7.222656 8.578125 6.867188 8.828125 6.484375 9.078125 C 6.8125 8.832031 7.167969 8.582031 7.550781 8.328125 Z M 7.550781 8.328125 "/>
<path style=" stroke:none;fill-rule:nonzero;fill:rgb(28.235294%,66.666667%,92.156863%);fill-opacity:1;" d="M 22.796875 19.683594 C 23 19.460938 23.226562 19.246094 23.480469 19 C 23.511719 18.976562 23.542969 18.96875 23.550781 18.976562 C 23.558594 18.984375 23.570312 18.996094 23.570312 18.996094 C 23.34375 19.25 23.25 19.644531 22.796875 19.683594 Z M 22.796875 19.683594 "/>
<path style=" stroke:none;fill-rule:nonzero;fill:rgb(28.235294%,66.666667%,92.156863%);fill-opacity:1;" d="M 18.25 21.695312 C 18.574219 21.597656 18.921875 21.511719 19.300781 21.429688 C 18.980469 21.519531 18.628906 21.613281 18.25 21.695312 Z M 18.25 21.695312 "/>
<path style=" stroke:none;fill-rule:nonzero;fill:rgb(28.235294%,66.666667%,92.156863%);fill-opacity:1;" d="M 9.515625 7.273438 C 9.515625 7.273438 9.484375 7.277344 9.449219 7.285156 C 9.394531 7.3125 9.375 7.328125 9.359375 7.34375 C 9.359375 7.34375 9.328125 7.351562 9.296875 7.359375 C 9.246094 7.386719 9.226562 7.402344 9.207031 7.417969 C 9.152344 7.441406 9.097656 7.464844 9 7.507812 C 8.898438 7.542969 8.835938 7.5625 8.777344 7.582031 C 9.101562 7.402344 9.429688 7.226562 9.785156 7.039062 C 9.8125 7.035156 9.828125 7.054688 9.828125 7.074219 C 9.832031 7.097656 9.820312 7.125 9.820312 7.125 C 9.78125 7.136719 9.742188 7.152344 9.664062 7.183594 C 9.59375 7.226562 9.554688 7.25 9.515625 7.273438 Z M 9.515625 7.273438 "/>
<path style=" stroke:none;fill-rule:nonzero;fill:rgb(28.235294%,66.666667%,92.156863%);fill-opacity:1;" d="M 21.972656 7.371094 C 21.890625 7.316406 21.808594 7.265625 21.695312 7.183594 C 21.582031 7.101562 21.507812 7.050781 21.441406 6.988281 C 21.445312 6.980469 21.460938 6.960938 21.460938 6.960938 C 21.742188 7.132812 22.027344 7.300781 22.3125 7.503906 C 22.316406 7.535156 22.292969 7.558594 22.273438 7.546875 C 22.214844 7.519531 22.175781 7.503906 22.136719 7.484375 C 22.136719 7.484375 22.132812 7.488281 22.128906 7.472656 C 22.097656 7.445312 22.074219 7.433594 22.050781 7.425781 C 22.050781 7.425781 22.050781 7.425781 22.042969 7.410156 C 22.019531 7.378906 22 7.367188 21.972656 7.371094 Z M 21.972656 7.371094 "/>
<path style=" stroke:none;fill-rule:nonzero;fill:rgb(83.921569%,97.254902%,100%);fill-opacity:1;" d="M 4.25 10.957031 C 4.292969 11.214844 4.316406 11.484375 4.332031 11.785156 C 4.269531 11.734375 4.21875 11.652344 4.152344 11.578125 C 3.933594 11.34375 3.964844 11.144531 4.25 10.957031 Z M 4.25 10.957031 "/>
<path style=" stroke:none;fill-rule:nonzero;fill:rgb(28.235294%,66.666667%,92.156863%);fill-opacity:1;" d="M 24.285156 18 C 24.285156 18 24.304688 17.980469 24.324219 17.953125 C 24.355469 17.902344 24.363281 17.875 24.375 17.851562 C 24.375 17.851562 24.375 17.851562 24.390625 17.839844 C 24.421875 17.820312 24.433594 17.796875 24.433594 17.773438 C 24.460938 17.738281 24.484375 17.703125 24.53125 17.636719 C 24.566406 17.589844 24.574219 17.570312 24.574219 17.550781 C 24.574219 17.550781 24.59375 17.519531 24.613281 17.496094 C 24.632812 17.476562 24.664062 17.464844 24.671875 17.46875 C 24.675781 17.476562 24.691406 17.488281 24.691406 17.488281 C 24.523438 17.777344 24.359375 18.066406 24.152344 18.347656 C 24.117188 18.34375 24.09375 18.320312 24.101562 18.300781 C 24.128906 18.238281 24.144531 18.199219 24.160156 18.15625 C 24.160156 18.15625 24.15625 18.152344 24.171875 18.148438 C 24.203125 18.121094 24.214844 18.097656 24.226562 18.078125 C 24.226562 18.078125 24.226562 18.074219 24.242188 18.070312 C 24.277344 18.046875 24.289062 18.023438 24.285156 18 Z M 24.285156 18 "/>
<path style=" stroke:none;fill-rule:nonzero;fill:rgb(28.235294%,66.666667%,92.156863%);fill-opacity:1;" d="M 6.179688 11.550781 C 6.335938 11.332031 6.515625 11.109375 6.71875 10.875 C 6.5625 11.09375 6.382812 11.320312 6.179688 11.550781 Z M 6.179688 11.550781 "/>
<path style=" stroke:none;fill-rule:nonzero;fill:rgb(83.921569%,97.254902%,100%);fill-opacity:1;" d="M 4.882812 12.699219 C 4.996094 12.84375 5.117188 13.011719 5.230469 13.210938 C 5.113281 13.070312 5 12.898438 4.882812 12.699219 Z M 4.882812 12.699219 "/>
<path style=" stroke:none;fill-rule:nonzero;fill:rgb(83.921569%,97.254902%,100%);fill-opacity:1;" d="M 6.050781 9.378906 C 5.925781 9.503906 5.78125 9.628906 5.609375 9.757812 C 5.730469 9.636719 5.878906 9.511719 6.050781 9.378906 Z M 6.050781 9.378906 "/>
<path style=" stroke:none;fill-rule:nonzero;fill:rgb(83.921569%,97.254902%,100%);fill-opacity:1;" d="M 8.769531 7.59375 C 8.835938 7.5625 8.898438 7.542969 8.984375 7.519531 C 8.890625 7.59375 8.777344 7.671875 8.65625 7.71875 C 8.675781 7.664062 8.707031 7.636719 8.738281 7.609375 C 8.738281 7.609375 8.757812 7.601562 8.769531 7.59375 Z M 8.769531 7.59375 "/>
<path style=" stroke:none;fill-rule:nonzero;fill:rgb(83.921569%,97.254902%,100%);fill-opacity:1;" d="M 4.585938 12.25 C 4.679688 12.355469 4.773438 12.484375 4.871094 12.644531 C 4.78125 12.539062 4.6875 12.40625 4.585938 12.25 Z M 4.585938 12.25 "/>
<path style=" stroke:none;fill-rule:nonzero;fill:rgb(28.235294%,66.666667%,92.156863%);fill-opacity:1;" d="M 24.8125 17.097656 C 24.839844 17.042969 24.867188 16.992188 24.917969 16.910156 C 24.941406 16.882812 24.972656 16.871094 24.972656 16.871094 C 24.890625 17.0625 24.808594 17.257812 24.707031 17.46875 C 24.691406 17.488281 24.675781 17.476562 24.671875 17.453125 C 24.664062 17.429688 24.65625 17.398438 24.65625 17.398438 C 24.65625 17.398438 24.671875 17.371094 24.691406 17.34375 C 24.71875 17.296875 24.726562 17.273438 24.734375 17.25 C 24.734375 17.25 24.75 17.222656 24.769531 17.195312 C 24.796875 17.148438 24.804688 17.121094 24.8125 17.097656 Z M 24.8125 17.097656 "/>
<path style=" stroke:none;fill-rule:nonzero;fill:rgb(83.921569%,97.254902%,100%);fill-opacity:1;" d="M 5.144531 10.121094 C 5.195312 10.296875 5.132812 10.390625 4.914062 10.355469 C 4.96875 10.277344 5.042969 10.203125 5.144531 10.121094 Z M 5.144531 10.121094 "/>
<path style=" stroke:none;fill-rule:nonzero;fill:rgb(28.235294%,66.666667%,92.156863%);fill-opacity:1;" d="M 23.855469 18.652344 C 23.828125 18.628906 23.832031 18.605469 23.875 18.558594 C 23.964844 18.457031 24.03125 18.390625 24.09375 18.320312 C 24.09375 18.320312 24.117188 18.34375 24.128906 18.355469 C 24.054688 18.460938 23.96875 18.558594 23.855469 18.652344 Z M 23.855469 18.652344 "/>
<path style=" stroke:none;fill-rule:nonzero;fill:rgb(28.235294%,66.666667%,92.156863%);fill-opacity:1;" d="M 21.28125 6.886719 C 21.210938 6.886719 21.132812 6.859375 21.019531 6.808594 C 20.933594 6.753906 20.886719 6.722656 20.84375 6.683594 C 20.851562 6.675781 20.863281 6.660156 20.863281 6.660156 C 21 6.726562 21.136719 6.796875 21.28125 6.886719 Z M 21.28125 6.886719 "/>
<path style=" stroke:none;fill-rule:nonzero;fill:rgb(83.921569%,97.254902%,100%);fill-opacity:1;" d="M 24.972656 16.871094 C 24.972656 16.871094 24.941406 16.882812 24.925781 16.886719 C 24.941406 16.769531 24.976562 16.648438 25.035156 16.515625 C 25.050781 16.558594 25.042969 16.613281 25.035156 16.691406 C 25.035156 16.71875 25.019531 16.734375 25 16.761719 C 24.980469 16.820312 24.976562 16.847656 24.972656 16.875 C 24.972656 16.875 24.976562 16.875 24.972656 16.871094 Z M 24.972656 16.871094 "/>
<path style=" stroke:none;fill-rule:nonzero;fill:rgb(83.921569%,97.254902%,100%);fill-opacity:1;" d="M 5.457031 9.847656 C 5.394531 9.933594 5.308594 10.023438 5.195312 10.117188 C 5.257812 10.027344 5.34375 9.941406 5.457031 9.847656 Z M 5.457031 9.847656 "/>
<path style=" stroke:none;fill-rule:nonzero;fill:rgb(28.235294%,66.666667%,92.156863%);fill-opacity:1;" d="M 24.238281 9.4375 C 24.308594 9.542969 24.382812 9.652344 24.453125 9.789062 C 24.449219 9.824219 24.433594 9.839844 24.417969 9.828125 C 24.375 9.785156 24.351562 9.757812 24.324219 9.730469 C 24.324219 9.730469 24.308594 9.730469 24.308594 9.707031 C 24.273438 9.613281 24.234375 9.542969 24.207031 9.464844 C 24.21875 9.457031 24.238281 9.4375 24.238281 9.4375 Z M 24.238281 9.4375 "/>
<path style=" stroke:none;fill-rule:nonzero;fill:rgb(28.235294%,66.666667%,92.156863%);fill-opacity:1;" d="M 7.300781 10.347656 C 7.347656 10.269531 7.425781 10.191406 7.527344 10.109375 C 7.472656 10.183594 7.398438 10.265625 7.300781 10.347656 Z M 7.300781 10.347656 "/>
<path style=" stroke:none;fill-rule:nonzero;fill:rgb(83.921569%,97.254902%,100%);fill-opacity:1;" d="M 6.429688 9.089844 C 6.375 9.15625 6.292969 9.230469 6.1875 9.304688 C 6.246094 9.234375 6.324219 9.164062 6.429688 9.089844 Z M 6.429688 9.089844 "/>
<path style=" stroke:none;fill-rule:nonzero;fill:rgb(28.235294%,66.666667%,92.156863%);fill-opacity:1;" d="M 23.457031 8.539062 C 23.457031 8.566406 23.425781 8.566406 23.402344 8.542969 C 23.367188 8.496094 23.347656 8.484375 23.324219 8.476562 C 23.324219 8.476562 23.324219 8.476562 23.316406 8.457031 C 23.292969 8.421875 23.273438 8.410156 23.25 8.40625 C 23.25 8.40625 23.25 8.402344 23.242188 8.382812 C 23.210938 8.332031 23.183594 8.296875 23.164062 8.257812 C 23.171875 8.25 23.1875 8.238281 23.1875 8.238281 C 23.277344 8.328125 23.367188 8.421875 23.457031 8.539062 Z M 23.457031 8.539062 "/>
<path style=" stroke:none;fill-rule:nonzero;fill:rgb(83.921569%,97.254902%,100%);fill-opacity:1;" d="M 4.355469 11.875 C 4.425781 11.953125 4.5 12.058594 4.574219 12.1875 C 4.503906 12.105469 4.433594 12.003906 4.355469 11.875 Z M 4.355469 11.875 "/>
<path style=" stroke:none;fill-rule:nonzero;fill:rgb(28.235294%,66.666667%,92.156863%);fill-opacity:1;" d="M 7.578125 10.097656 C 7.617188 10.035156 7.683594 9.96875 7.773438 9.902344 C 7.734375 9.964844 7.667969 10.03125 7.578125 10.097656 Z M 7.578125 10.097656 "/>
<path style=" stroke:none;fill-rule:nonzero;fill:rgb(28.235294%,66.666667%,92.156863%);fill-opacity:1;" d="M 7.066406 10.566406 C 7.105469 10.5 7.164062 10.429688 7.25 10.351562 C 7.214844 10.417969 7.152344 10.492188 7.066406 10.566406 Z M 7.066406 10.566406 "/>
<path style=" stroke:none;fill-rule:nonzero;fill:rgb(28.235294%,66.666667%,92.156863%);fill-opacity:1;" d="M 24.007812 9.28125 C 24.007812 9.28125 23.996094 9.25 23.984375 9.226562 C 23.976562 9.199219 23.976562 9.175781 23.984375 9.164062 C 23.996094 9.15625 24.011719 9.136719 24.011719 9.136719 C 24.082031 9.222656 24.152344 9.308594 24.230469 9.414062 C 24.238281 9.4375 24.21875 9.457031 24.191406 9.453125 C 24.136719 9.425781 24.105469 9.398438 24.078125 9.375 C 24.078125 9.375 24.074219 9.375 24.070312 9.355469 C 24.046875 9.316406 24.027344 9.300781 24.007812 9.28125 Z M 24.007812 9.28125 "/>
<path style=" stroke:none;fill-rule:nonzero;fill:rgb(28.235294%,66.666667%,92.156863%);fill-opacity:1;" d="M 22.558594 7.714844 C 22.539062 7.734375 22.511719 7.730469 22.457031 7.699219 C 22.382812 7.636719 22.339844 7.597656 22.292969 7.558594 C 22.292969 7.558594 22.316406 7.535156 22.324219 7.527344 C 22.410156 7.574219 22.484375 7.632812 22.558594 7.714844 Z M 22.558594 7.714844 "/>
<path style=" stroke:none;fill-rule:nonzero;fill:rgb(83.921569%,97.254902%,100%);fill-opacity:1;" d="M 5.554688 13.363281 C 5.535156 13.390625 5.492188 13.414062 5.421875 13.445312 C 5.351562 13.410156 5.304688 13.367188 5.257812 13.300781 C 5.34375 13.300781 5.4375 13.328125 5.554688 13.363281 Z M 5.554688 13.363281 "/>
<path style=" stroke:none;fill-rule:nonzero;fill:rgb(28.235294%,66.666667%,92.156863%);fill-opacity:1;" d="M 23.777344 8.992188 C 23.777344 8.992188 23.773438 8.960938 23.773438 8.941406 C 23.851562 8.980469 23.921875 9.035156 24.003906 9.113281 C 24.011719 9.136719 23.996094 9.15625 23.972656 9.160156 C 23.949219 9.167969 23.917969 9.164062 23.917969 9.164062 C 23.917969 9.164062 23.917969 9.15625 23.910156 9.136719 C 23.890625 9.097656 23.875 9.085938 23.847656 9.078125 C 23.847656 9.078125 23.851562 9.074219 23.84375 9.058594 C 23.816406 9.023438 23.796875 9.007812 23.777344 8.992188 Z M 23.777344 8.992188 "/>
<path style=" stroke:none;fill-rule:nonzero;fill:rgb(28.235294%,66.666667%,92.156863%);fill-opacity:1;" d="M 24.523438 10.054688 C 24.519531 10.03125 24.511719 10.007812 24.476562 9.957031 C 24.449219 9.894531 24.441406 9.867188 24.433594 9.839844 C 24.433594 9.839844 24.449219 9.824219 24.457031 9.816406 C 24.511719 9.871094 24.554688 9.933594 24.597656 10.027344 C 24.59375 10.058594 24.574219 10.074219 24.5625 10.070312 C 24.546875 10.0625 24.523438 10.054688 24.523438 10.054688 Z M 24.523438 10.054688 "/>
<path style=" stroke:none;fill-rule:nonzero;fill:rgb(28.235294%,66.666667%,92.156863%);fill-opacity:1;" d="M 23.621094 18.824219 C 23.65625 18.800781 23.6875 18.773438 23.742188 18.742188 C 23.710938 18.816406 23.660156 18.894531 23.589844 18.984375 C 23.570312 18.996094 23.558594 18.984375 23.554688 18.960938 C 23.550781 18.9375 23.550781 18.902344 23.550781 18.902344 C 23.550781 18.902344 23.550781 18.898438 23.566406 18.894531 C 23.605469 18.871094 23.617188 18.851562 23.621094 18.824219 Z M 23.621094 18.824219 "/>
<path style=" stroke:none;fill-rule:nonzero;fill:rgb(28.235294%,66.666667%,92.156863%);fill-opacity:1;" d="M 8.457031 7.734375 C 8.421875 7.785156 8.359375 7.832031 8.273438 7.878906 C 8.308594 7.832031 8.371094 7.78125 8.457031 7.734375 Z M 8.457031 7.734375 "/>
<path style=" stroke:none;fill-rule:nonzero;fill:rgb(28.235294%,66.666667%,92.156863%);fill-opacity:1;" d="M 8.710938 7.609375 C 8.707031 7.636719 8.675781 7.664062 8.636719 7.703125 C 8.59375 7.726562 8.5625 7.734375 8.507812 7.738281 C 8.550781 7.691406 8.617188 7.648438 8.710938 7.609375 Z M 8.710938 7.609375 "/>
<path style=" stroke:none;fill-rule:nonzero;fill:rgb(83.921569%,97.254902%,100%);fill-opacity:1;" d="M 8.03125 8.050781 C 7.980469 8.085938 7.933594 8.121094 7.863281 8.160156 C 7.867188 8.128906 7.894531 8.101562 7.957031 8.0625 C 8.003906 8.050781 8.015625 8.050781 8.03125 8.050781 Z M 8.03125 8.050781 "/>
<path style=" stroke:none;fill-rule:nonzero;fill:rgb(28.235294%,66.666667%,92.156863%);fill-opacity:1;" d="M 22.949219 8.117188 C 22.921875 8.085938 22.894531 8.050781 22.859375 7.996094 C 22.90625 8 22.960938 8.023438 23.015625 8.078125 C 23.019531 8.105469 23.003906 8.121094 22.992188 8.117188 C 22.976562 8.117188 22.949219 8.117188 22.949219 8.117188 Z M 22.949219 8.117188 "/>
<path style=" stroke:none;fill-rule:nonzero;fill:rgb(28.235294%,66.666667%,92.156863%);fill-opacity:1;" d="M 24.75 10.496094 C 24.738281 10.453125 24.726562 10.414062 24.710938 10.351562 C 24.746094 10.367188 24.785156 10.40625 24.824219 10.472656 C 24.820312 10.503906 24.804688 10.515625 24.792969 10.511719 C 24.78125 10.503906 24.75 10.496094 24.75 10.496094 Z M 24.75 10.496094 "/>
<path style=" stroke:none;fill-rule:nonzero;fill:rgb(28.235294%,66.666667%,92.156863%);fill-opacity:1;" d="M 22.648438 7.875 C 22.648438 7.875 22.640625 7.839844 22.640625 7.824219 C 22.683594 7.820312 22.722656 7.832031 22.773438 7.871094 C 22.78125 7.894531 22.765625 7.910156 22.746094 7.902344 C 22.699219 7.890625 22.675781 7.882812 22.648438 7.875 Z M 22.648438 7.875 "/>
<path style=" stroke:none;fill-rule:nonzero;fill:rgb(28.235294%,66.666667%,92.156863%);fill-opacity:1;" d="M 24.828125 10.496094 C 24.859375 10.527344 24.878906 10.5625 24.910156 10.617188 C 24.917969 10.636719 24.898438 10.652344 24.871094 10.644531 C 24.835938 10.597656 24.820312 10.558594 24.804688 10.515625 C 24.804688 10.515625 24.820312 10.503906 24.828125 10.496094 Z M 24.828125 10.496094 "/>
<path style=" stroke:none;fill-rule:nonzero;fill:rgb(28.235294%,66.666667%,92.156863%);fill-opacity:1;" d="M 8.046875 8.039062 C 8.015625 8.050781 8.003906 8.050781 7.972656 8.046875 C 7.992188 8.019531 8.027344 7.992188 8.089844 7.960938 C 8.09375 7.984375 8.078125 8.003906 8.046875 8.039062 Z M 8.046875 8.039062 "/>
<path style=" stroke:none;fill-rule:nonzero;fill:rgb(28.235294%,66.666667%,92.156863%);fill-opacity:1;" d="M 21.367188 6.996094 C 21.347656 6.980469 21.328125 6.964844 21.296875 6.929688 C 21.332031 6.921875 21.375 6.929688 21.441406 6.949219 C 21.460938 6.960938 21.445312 6.980469 21.421875 6.988281 C 21.402344 6.996094 21.367188 6.996094 21.367188 6.996094 Z M 21.367188 6.996094 "/>
<path style=" stroke:none;fill-rule:nonzero;fill:rgb(28.235294%,66.666667%,92.156863%);fill-opacity:1;" d="M 23.773438 8.902344 C 23.742188 8.898438 23.710938 8.871094 23.675781 8.824219 C 23.703125 8.828125 23.738281 8.855469 23.773438 8.902344 Z M 23.773438 8.902344 "/>
<path style=" stroke:none;fill-rule:nonzero;fill:rgb(83.921569%,97.254902%,100%);fill-opacity:1;" d="M 7.695312 8.234375 C 7.683594 8.261719 7.652344 8.289062 7.597656 8.320312 C 7.609375 8.296875 7.640625 8.265625 7.695312 8.234375 Z M 7.695312 8.234375 "/>
<path style=" stroke:none;fill-rule:nonzero;fill:rgb(28.235294%,66.666667%,92.156863%);fill-opacity:1;" d="M 24.601562 10.050781 C 24.632812 10.078125 24.652344 10.113281 24.675781 10.175781 C 24.671875 10.203125 24.65625 10.21875 24.644531 10.210938 C 24.628906 10.207031 24.601562 10.199219 24.601562 10.199219 C 24.601562 10.199219 24.601562 10.199219 24.597656 10.179688 C 24.589844 10.128906 24.582031 10.101562 24.574219 10.074219 C 24.574219 10.074219 24.59375 10.058594 24.601562 10.050781 Z M 24.601562 10.050781 "/>
<path style=" stroke:none;fill-rule:nonzero;fill:rgb(28.235294%,66.666667%,92.156863%);fill-opacity:1;" d="M 20.707031 6.589844 C 20.753906 6.601562 20.789062 6.617188 20.84375 6.648438 C 20.863281 6.660156 20.851562 6.675781 20.824219 6.679688 C 20.757812 6.660156 20.722656 6.640625 20.6875 6.617188 C 20.6875 6.617188 20.699219 6.601562 20.707031 6.589844 Z M 20.707031 6.589844 "/>
<path style=" stroke:none;fill-rule:nonzero;fill:rgb(28.235294%,66.666667%,92.156863%);fill-opacity:1;" d="M 24.984375 16.855469 C 24.976562 16.847656 24.980469 16.820312 24.996094 16.773438 C 25.007812 16.785156 25.003906 16.8125 24.984375 16.855469 Z M 24.984375 16.855469 "/>
<path style=" stroke:none;fill-rule:nonzero;fill:rgb(28.235294%,66.666667%,92.156863%);fill-opacity:1;" d="M 23.777344 18.730469 C 23.769531 18.714844 23.78125 18.691406 23.8125 18.660156 C 23.820312 18.675781 23.808594 18.699219 23.777344 18.730469 Z M 23.777344 18.730469 "/>
<path style=" stroke:none;fill-rule:nonzero;fill:rgb(83.921569%,97.254902%,100%);fill-opacity:1;" d="M 6.136719 9.316406 C 6.144531 9.335938 6.128906 9.351562 6.09375 9.371094 C 6.082031 9.347656 6.09375 9.328125 6.136719 9.316406 Z M 6.136719 9.316406 "/>
<path style=" stroke:none;fill-rule:nonzero;fill:rgb(28.235294%,66.666667%,92.156863%);fill-opacity:1;" d="M 6.988281 10.640625 C 6.980469 10.621094 6.992188 10.601562 7.027344 10.574219 C 7.03125 10.589844 7.019531 10.609375 6.988281 10.640625 Z M 6.988281 10.640625 "/>
<path style=" stroke:none;fill-rule:nonzero;fill:rgb(28.235294%,66.666667%,92.156863%);fill-opacity:1;" d="M 6.90625 10.714844 C 6.902344 10.699219 6.914062 10.675781 6.949219 10.648438 C 6.957031 10.664062 6.941406 10.6875 6.90625 10.714844 Z M 6.90625 10.714844 "/>
<path style=" stroke:none;fill-rule:nonzero;fill:rgb(28.235294%,66.666667%,92.156863%);fill-opacity:1;" d="M 23.109375 8.164062 C 23.128906 8.175781 23.148438 8.191406 23.175781 8.222656 C 23.1875 8.238281 23.171875 8.25 23.148438 8.25 C 23.105469 8.238281 23.089844 8.21875 23.089844 8.1875 C 23.097656 8.179688 23.109375 8.164062 23.109375 8.164062 Z M 23.109375 8.164062 "/>
<path style=" stroke:none;fill-rule:nonzero;fill:rgb(83.921569%,97.254902%,100%);fill-opacity:1;" d="M 4.480469 10.730469 C 4.492188 10.75 4.480469 10.769531 4.441406 10.792969 C 4.4375 10.777344 4.449219 10.757812 4.480469 10.730469 Z M 4.480469 10.730469 "/>
<path style=" stroke:none;fill-rule:nonzero;fill:rgb(83.921569%,97.254902%,100%);fill-opacity:1;" d="M 4.40625 10.804688 C 4.417969 10.824219 4.402344 10.84375 4.367188 10.867188 C 4.351562 10.847656 4.363281 10.824219 4.40625 10.804688 Z M 4.40625 10.804688 "/>
<path style=" stroke:none;fill-rule:nonzero;fill:rgb(28.235294%,66.666667%,92.156863%);fill-opacity:1;" d="M 6.761719 10.863281 C 6.753906 10.847656 6.769531 10.824219 6.800781 10.792969 C 6.808594 10.808594 6.792969 10.832031 6.761719 10.863281 Z M 6.761719 10.863281 "/>
<path style=" stroke:none;fill-rule:nonzero;fill:rgb(28.235294%,66.666667%,92.156863%);fill-opacity:1;" d="M 23.027344 8.097656 C 23.054688 8.105469 23.070312 8.121094 23.097656 8.148438 C 23.109375 8.164062 23.097656 8.179688 23.074219 8.183594 C 23.050781 8.1875 23.019531 8.1875 23.019531 8.1875 C 23.019531 8.1875 23.019531 8.179688 23.015625 8.164062 C 23.011719 8.148438 23.003906 8.121094 23.003906 8.121094 C 23.003906 8.121094 23.019531 8.105469 23.027344 8.097656 Z M 23.027344 8.097656 "/>
<path style=" stroke:none;fill-rule:nonzero;fill:rgb(28.235294%,66.666667%,92.156863%);fill-opacity:1;" d="M 22.636719 7.789062 C 22.621094 7.796875 22.597656 7.785156 22.566406 7.757812 C 22.585938 7.75 22.605469 7.761719 22.636719 7.789062 Z M 22.636719 7.789062 "/>
<path style=" stroke:none;fill-rule:nonzero;fill:rgb(28.235294%,66.666667%,92.156863%);fill-opacity:1;" d="M 24.699219 10.285156 C 24.695312 10.304688 24.671875 10.296875 24.664062 10.273438 C 24.65625 10.25 24.65625 10.21875 24.65625 10.21875 C 24.65625 10.21875 24.671875 10.203125 24.679688 10.195312 C 24.695312 10.214844 24.699219 10.238281 24.699219 10.285156 Z M 24.699219 10.285156 "/>
<path style=" stroke:none;fill-rule:nonzero;fill:rgb(28.235294%,66.666667%,92.156863%);fill-opacity:1;" d="M 23.527344 8.625 C 23.511719 8.628906 23.488281 8.617188 23.460938 8.585938 C 23.476562 8.578125 23.5 8.59375 23.527344 8.625 Z M 23.527344 8.625 "/>
<path style=" stroke:none;fill-rule:nonzero;fill:rgb(28.235294%,66.666667%,92.156863%);fill-opacity:1;" d="M 22.847656 7.957031 C 22.835938 7.972656 22.820312 7.972656 22.785156 7.953125 C 22.765625 7.9375 22.765625 7.910156 22.765625 7.910156 C 22.765625 7.910156 22.78125 7.894531 22.792969 7.882812 C 22.816406 7.894531 22.832031 7.917969 22.847656 7.957031 Z M 22.847656 7.957031 "/>
<path style=" stroke:none;fill-rule:nonzero;fill:rgb(28.235294%,66.666667%,92.156863%);fill-opacity:1;" d="M 8.195312 7.902344 C 8.195312 7.917969 8.171875 7.9375 8.128906 7.960938 C 8.128906 7.945312 8.148438 7.925781 8.195312 7.902344 Z M 8.195312 7.902344 "/>
<path style=" stroke:none;fill-rule:nonzero;fill:rgb(28.235294%,66.666667%,92.156863%);fill-opacity:1;" d="M 23.597656 8.703125 C 23.582031 8.707031 23.5625 8.695312 23.535156 8.660156 C 23.550781 8.65625 23.574219 8.667969 23.597656 8.703125 Z M 23.597656 8.703125 "/>
<path style=" stroke:none;fill-rule:nonzero;fill:rgb(28.235294%,66.666667%,92.156863%);fill-opacity:1;" d="M 23.664062 8.78125 C 23.648438 8.785156 23.628906 8.769531 23.605469 8.738281 C 23.628906 8.722656 23.648438 8.738281 23.664062 8.78125 Z M 23.664062 8.78125 "/>
<path style=" stroke:none;fill-rule:nonzero;fill:rgb(0.784314%,61.176471%,99.607843%);fill-opacity:1;" d="M 18.105469 20.140625 C 15.65625 20.789062 13.300781 20.46875 10.972656 19.6875 C 10.558594 19.546875 10.40625 19.335938 10.410156 18.878906 C 10.433594 15.558594 10.429688 12.234375 10.414062 8.914062 C 10.414062 8.589844 10.519531 8.414062 10.792969 8.269531 C 12.945312 7.105469 15.21875 6.609375 17.625 7.160156 C 20.558594 7.828125 22.503906 10.3125 22.652344 13.433594 C 22.800781 16.632812 21.152344 19.074219 18.105469 20.140625 Z M 18.105469 20.140625 "/>
<path style=" stroke:none;fill-rule:nonzero;fill:rgb(83.921569%,97.254902%,100%);fill-opacity:1;" d="M 15.097656 5.785156 C 15.703125 5.757812 16.339844 5.75 17 5.753906 C 16.394531 5.78125 15.757812 5.789062 15.097656 5.785156 Z M 15.097656 5.785156 "/>
<path style=" stroke:none;fill-rule:nonzero;fill:rgb(83.921569%,97.254902%,100%);fill-opacity:1;" d="M 25.511719 13.496094 C 25.523438 13.808594 25.53125 14.160156 25.523438 14.542969 C 25.507812 14.226562 25.507812 13.878906 25.511719 13.496094 Z M 25.511719 13.496094 "/>
<path style=" stroke:none;fill-rule:nonzero;fill:rgb(83.921569%,97.254902%,100%);fill-opacity:1;" d="M 24.101562 18.300781 C 24.03125 18.390625 23.964844 18.457031 23.882812 18.539062 C 23.945312 18.421875 24.023438 18.292969 24.132812 18.160156 C 24.144531 18.199219 24.128906 18.238281 24.101562 18.300781 Z M 24.101562 18.300781 "/>
<path style=" stroke:none;fill-rule:nonzero;fill:rgb(83.921569%,97.254902%,100%);fill-opacity:1;" d="M 18.921875 6.027344 C 19.011719 6.054688 19.070312 6.074219 19.148438 6.109375 C 19.011719 6.101562 18.855469 6.082031 18.683594 6.03125 C 18.746094 6.015625 18.820312 6.019531 18.921875 6.027344 Z M 18.921875 6.027344 "/>
<path style=" stroke:none;fill-rule:nonzero;fill:rgb(83.921569%,97.254902%,100%);fill-opacity:1;" d="M 20.664062 6.613281 C 20.722656 6.640625 20.757812 6.660156 20.816406 6.6875 C 20.886719 6.722656 20.933594 6.753906 20.996094 6.804688 C 20.863281 6.765625 20.714844 6.707031 20.558594 6.625 C 20.582031 6.601562 20.609375 6.605469 20.664062 6.613281 Z M 20.664062 6.613281 "/>
<path style=" stroke:none;fill-rule:nonzero;fill:rgb(83.921569%,97.254902%,100%);fill-opacity:1;" d="M 24.078125 9.402344 C 24.105469 9.398438 24.136719 9.425781 24.179688 9.460938 C 24.234375 9.542969 24.273438 9.613281 24.316406 9.707031 C 24.242188 9.628906 24.160156 9.527344 24.078125 9.402344 Z M 24.078125 9.402344 "/>
<path style=" stroke:none;fill-rule:nonzero;fill:rgb(83.921569%,97.254902%,100%);fill-opacity:1;" d="M 22.273438 7.546875 C 22.339844 7.597656 22.382812 7.636719 22.4375 7.691406 C 22.347656 7.652344 22.246094 7.597656 22.140625 7.511719 C 22.175781 7.503906 22.214844 7.519531 22.273438 7.546875 Z M 22.273438 7.546875 "/>
<path style=" stroke:none;fill-rule:nonzero;fill:rgb(83.921569%,97.254902%,100%);fill-opacity:1;" d="M 19.285156 6.179688 C 19.414062 6.1875 19.554688 6.222656 19.71875 6.273438 C 19.589844 6.261719 19.445312 6.234375 19.285156 6.179688 Z M 19.285156 6.179688 "/>
<path style=" stroke:none;fill-rule:nonzero;fill:rgb(83.921569%,97.254902%,100%);fill-opacity:1;" d="M 24.914062 10.875 C 24.964844 10.957031 25.011719 11.074219 25.0625 11.214844 C 25.011719 11.128906 24.960938 11.019531 24.914062 10.875 Z M 24.914062 10.875 "/>
<path style=" stroke:none;fill-rule:nonzero;fill:rgb(83.921569%,97.254902%,100%);fill-opacity:1;" d="M 13.742188 5.9375 C 13.722656 5.925781 13.734375 5.902344 13.742188 5.890625 C 13.847656 5.871094 13.945312 5.863281 14.070312 5.859375 C 13.988281 5.890625 13.875 5.921875 13.742188 5.9375 Z M 13.742188 5.9375 "/>
<path style=" stroke:none;fill-rule:nonzero;fill:rgb(83.921569%,97.254902%,100%);fill-opacity:1;" d="M 21.375 7.023438 C 21.367188 6.996094 21.402344 6.996094 21.417969 6.996094 C 21.507812 7.050781 21.582031 7.101562 21.671875 7.175781 C 21.582031 7.148438 21.480469 7.097656 21.375 7.023438 Z M 21.375 7.023438 "/>
<path style=" stroke:none;fill-rule:nonzero;fill:rgb(83.921569%,97.254902%,100%);fill-opacity:1;" d="M 12.246094 6.257812 C 12.332031 6.214844 12.4375 6.183594 12.574219 6.152344 C 12.488281 6.195312 12.378906 6.230469 12.246094 6.257812 Z M 12.246094 6.257812 "/>
<path style=" stroke:none;fill-rule:nonzero;fill:rgb(83.921569%,97.254902%,100%);fill-opacity:1;" d="M 25.472656 14.867188 C 25.476562 14.9375 25.464844 15.023438 25.441406 15.132812 C 25.4375 15.0625 25.449219 14.972656 25.472656 14.867188 Z M 25.472656 14.867188 "/>
<path style=" stroke:none;fill-rule:nonzero;fill:rgb(83.921569%,97.254902%,100%);fill-opacity:1;" d="M 23.023438 8.210938 C 23.019531 8.1875 23.050781 8.1875 23.066406 8.191406 C 23.089844 8.21875 23.105469 8.238281 23.140625 8.257812 C 23.183594 8.296875 23.210938 8.332031 23.242188 8.382812 C 23.171875 8.347656 23.097656 8.292969 23.023438 8.210938 Z M 23.023438 8.210938 "/>
<path style=" stroke:none;fill-rule:nonzero;fill:rgb(83.921569%,97.254902%,100%);fill-opacity:1;" d="M 24.792969 10.511719 C 24.820312 10.558594 24.835938 10.597656 24.863281 10.652344 C 24.882812 10.695312 24.890625 10.726562 24.894531 10.777344 C 24.847656 10.714844 24.796875 10.632812 24.75 10.523438 C 24.75 10.496094 24.78125 10.503906 24.792969 10.511719 Z M 24.792969 10.511719 "/>
<path style=" stroke:none;fill-rule:nonzero;fill:rgb(83.921569%,97.254902%,100%);fill-opacity:1;" d="M 12.988281 6.085938 C 13.054688 6.046875 13.140625 6.023438 13.25 6 C 13.1875 6.035156 13.097656 6.066406 12.988281 6.085938 Z M 12.988281 6.085938 "/>
<path style=" stroke:none;fill-rule:nonzero;fill:rgb(83.921569%,97.254902%,100%);fill-opacity:1;" d="M 24.417969 9.828125 C 24.441406 9.867188 24.449219 9.894531 24.460938 9.945312 C 24.417969 9.90625 24.367188 9.84375 24.320312 9.757812 C 24.351562 9.757812 24.375 9.785156 24.417969 9.828125 Z M 24.417969 9.828125 "/>
<path style=" stroke:none;fill-rule:nonzero;fill:rgb(83.921569%,97.254902%,100%);fill-opacity:1;" d="M 17.273438 5.796875 C 17.367188 5.792969 17.488281 5.796875 17.632812 5.820312 C 17.539062 5.828125 17.421875 5.820312 17.273438 5.796875 Z M 17.273438 5.796875 "/>
<path style=" stroke:none;fill-rule:nonzero;fill:rgb(83.921569%,97.254902%,100%);fill-opacity:1;" d="M 25.417969 12.683594 C 25.449219 12.730469 25.46875 12.792969 25.484375 12.878906 C 25.457031 12.835938 25.429688 12.765625 25.417969 12.683594 Z M 25.417969 12.683594 "/>
<path style=" stroke:none;fill-rule:nonzero;fill:rgb(83.921569%,97.254902%,100%);fill-opacity:1;" d="M 11.855469 6.375 C 11.882812 6.34375 11.921875 6.324219 11.980469 6.308594 C 11.957031 6.335938 11.914062 6.363281 11.855469 6.375 Z M 11.855469 6.375 "/>
<path style=" stroke:none;fill-rule:nonzero;fill:rgb(83.921569%,97.254902%,100%);fill-opacity:1;" d="M 14.332031 5.84375 C 14.394531 5.820312 14.480469 5.800781 14.597656 5.789062 C 14.535156 5.8125 14.449219 5.828125 14.332031 5.84375 Z M 14.332031 5.84375 "/>
<path style=" stroke:none;fill-rule:nonzero;fill:rgb(83.921569%,97.254902%,100%);fill-opacity:1;" d="M 18.394531 5.949219 C 18.441406 5.945312 18.507812 5.953125 18.59375 5.976562 C 18.546875 5.984375 18.484375 5.972656 18.394531 5.949219 Z M 18.394531 5.949219 "/>
<path style=" stroke:none;fill-rule:nonzero;fill:rgb(83.921569%,97.254902%,100%);fill-opacity:1;" d="M 18.019531 5.882812 C 18.066406 5.875 18.128906 5.886719 18.214844 5.90625 C 18.171875 5.910156 18.105469 5.902344 18.019531 5.882812 Z M 18.019531 5.882812 "/>
<path style=" stroke:none;fill-rule:nonzero;fill:rgb(83.921569%,97.254902%,100%);fill-opacity:1;" d="M 25.398438 15.320312 C 25.40625 15.367188 25.398438 15.433594 25.375 15.523438 C 25.371094 15.480469 25.378906 15.410156 25.398438 15.320312 Z M 25.398438 15.320312 "/>
<path style=" stroke:none;fill-rule:nonzero;fill:rgb(83.921569%,97.254902%,100%);fill-opacity:1;" d="M 10.960938 6.667969 C 10.976562 6.648438 11.015625 6.628906 11.078125 6.605469 C 11.0625 6.628906 11.023438 6.648438 10.960938 6.667969 Z M 10.960938 6.667969 "/>
<path style=" stroke:none;fill-rule:nonzero;fill:rgb(83.921569%,97.254902%,100%);fill-opacity:1;" d="M 25.136719 11.476562 C 25.15625 11.496094 25.175781 11.535156 25.195312 11.601562 C 25.175781 11.585938 25.15625 11.542969 25.136719 11.476562 Z M 25.136719 11.476562 "/>
<path style=" stroke:none;fill-rule:nonzero;fill:rgb(83.921569%,97.254902%,100%);fill-opacity:1;" d="M 25.210938 11.699219 C 25.230469 11.71875 25.25 11.761719 25.265625 11.828125 C 25.246094 11.808594 25.226562 11.765625 25.210938 11.699219 Z M 25.210938 11.699219 "/>
<path style=" stroke:none;fill-rule:nonzero;fill:rgb(83.921569%,97.254902%,100%);fill-opacity:1;" d="M 25.277344 11.941406 C 25.292969 11.957031 25.3125 11.996094 25.328125 12.054688 C 25.308594 12.039062 25.292969 12 25.277344 11.941406 Z M 25.277344 11.941406 "/>
<path style=" stroke:none;fill-rule:nonzero;fill:rgb(83.921569%,97.254902%,100%);fill-opacity:1;" d="M 25.363281 12.296875 C 25.378906 12.316406 25.394531 12.359375 25.410156 12.425781 C 25.390625 12.40625 25.375 12.363281 25.363281 12.296875 Z M 25.363281 12.296875 "/>
<path style=" stroke:none;fill-rule:nonzero;fill:rgb(83.921569%,97.254902%,100%);fill-opacity:1;" d="M 20.191406 6.46875 C 20.21875 6.464844 20.261719 6.476562 20.320312 6.503906 C 20.292969 6.507812 20.25 6.496094 20.191406 6.46875 Z M 20.191406 6.46875 "/>
<path style=" stroke:none;fill-rule:nonzero;fill:rgb(83.921569%,97.254902%,100%);fill-opacity:1;" d="M 22.746094 7.902344 C 22.765625 7.910156 22.765625 7.9375 22.761719 7.949219 C 22.730469 7.941406 22.699219 7.925781 22.660156 7.890625 C 22.675781 7.882812 22.699219 7.890625 22.746094 7.902344 Z M 22.746094 7.902344 "/>
<path style=" stroke:none;fill-rule:nonzero;fill:rgb(83.921569%,97.254902%,100%);fill-opacity:1;" d="M 10.742188 6.746094 C 10.757812 6.726562 10.792969 6.703125 10.855469 6.683594 C 10.839844 6.703125 10.800781 6.722656 10.742188 6.746094 Z M 10.742188 6.746094 "/>
<path style=" stroke:none;fill-rule:nonzero;fill:rgb(83.921569%,97.254902%,100%);fill-opacity:1;" d="M 25.320312 15.691406 C 25.324219 15.71875 25.316406 15.761719 25.296875 15.824219 C 25.289062 15.796875 25.296875 15.753906 25.320312 15.691406 Z M 25.320312 15.691406 "/>
<path style=" stroke:none;fill-rule:nonzero;fill:rgb(83.921569%,97.254902%,100%);fill-opacity:1;" d="M 25.183594 16.140625 C 25.1875 16.171875 25.179688 16.21875 25.152344 16.28125 C 25.148438 16.253906 25.15625 16.207031 25.183594 16.140625 Z M 25.183594 16.140625 "/>
<path style=" stroke:none;fill-rule:nonzero;fill:rgb(83.921569%,97.254902%,100%);fill-opacity:1;" d="M 25.109375 16.363281 C 25.113281 16.390625 25.101562 16.433594 25.078125 16.492188 C 25.070312 16.464844 25.082031 16.421875 25.109375 16.363281 Z M 25.109375 16.363281 "/>
<path style=" stroke:none;fill-rule:nonzero;fill:rgb(83.921569%,97.254902%,100%);fill-opacity:1;" d="M 19.816406 6.324219 C 19.839844 6.320312 19.882812 6.332031 19.941406 6.359375 C 19.914062 6.359375 19.875 6.351562 19.816406 6.324219 Z M 19.816406 6.324219 "/>
<path style=" stroke:none;fill-rule:nonzero;fill:rgb(83.921569%,97.254902%,100%);fill-opacity:1;" d="M 9.539062 7.269531 C 9.554688 7.25 9.59375 7.226562 9.652344 7.199219 C 9.636719 7.21875 9.601562 7.246094 9.539062 7.269531 Z M 9.539062 7.269531 "/>
<path style=" stroke:none;fill-rule:nonzero;fill:rgb(83.921569%,97.254902%,100%);fill-opacity:1;" d="M 12.683594 6.144531 C 12.699219 6.125 12.742188 6.105469 12.804688 6.089844 C 12.785156 6.109375 12.746094 6.128906 12.683594 6.144531 Z M 12.683594 6.144531 "/>
<path style=" stroke:none;fill-rule:nonzero;fill:rgb(83.921569%,97.254902%,100%);fill-opacity:1;" d="M 9.84375 7.121094 C 9.820312 7.125 9.832031 7.097656 9.835938 7.082031 C 9.875 7.066406 9.902344 7.0625 9.953125 7.054688 C 9.941406 7.078125 9.902344 7.097656 9.84375 7.121094 Z M 9.84375 7.121094 "/>
<path style=" stroke:none;fill-rule:nonzero;fill:rgb(83.921569%,97.254902%,100%);fill-opacity:1;" d="M 24.5625 10.070312 C 24.582031 10.101562 24.589844 10.128906 24.597656 10.179688 C 24.578125 10.164062 24.550781 10.132812 24.523438 10.078125 C 24.523438 10.054688 24.546875 10.0625 24.5625 10.070312 Z M 24.5625 10.070312 "/>
<path style=" stroke:none;fill-rule:nonzero;fill:rgb(83.921569%,97.254902%,100%);fill-opacity:1;" d="M 24.359375 17.863281 C 24.363281 17.875 24.355469 17.902344 24.328125 17.941406 C 24.324219 17.929688 24.332031 17.90625 24.359375 17.863281 Z M 24.359375 17.863281 "/>
<path style=" stroke:none;fill-rule:nonzero;fill:rgb(83.921569%,97.254902%,100%);fill-opacity:1;" d="M 11.617188 6.4375 C 11.621094 6.425781 11.640625 6.410156 11.683594 6.394531 C 11.679688 6.410156 11.660156 6.421875 11.617188 6.4375 Z M 11.617188 6.4375 "/>
<path style=" stroke:none;fill-rule:nonzero;fill:rgb(83.921569%,97.254902%,100%);fill-opacity:1;" d="M 24.796875 17.113281 C 24.804688 17.121094 24.796875 17.148438 24.773438 17.183594 C 24.761719 17.167969 24.769531 17.144531 24.796875 17.113281 Z M 24.796875 17.113281 "/>
<path style=" stroke:none;fill-rule:nonzero;fill:rgb(83.921569%,97.254902%,100%);fill-opacity:1;" d="M 24.722656 17.261719 C 24.726562 17.273438 24.71875 17.296875 24.695312 17.328125 C 24.683594 17.316406 24.695312 17.292969 24.722656 17.261719 Z M 24.722656 17.261719 "/>
<path style=" stroke:none;fill-rule:nonzero;fill:rgb(83.921569%,97.254902%,100%);fill-opacity:1;" d="M 24.644531 17.410156 C 24.65625 17.398438 24.664062 17.429688 24.664062 17.445312 C 24.664062 17.464844 24.632812 17.476562 24.617188 17.480469 C 24.609375 17.460938 24.617188 17.441406 24.644531 17.410156 Z M 24.644531 17.410156 "/>
<path style=" stroke:none;fill-rule:nonzero;fill:rgb(83.921569%,97.254902%,100%);fill-opacity:1;" d="M 23.855469 9.09375 C 23.875 9.085938 23.890625 9.097656 23.90625 9.136719 C 23.890625 9.144531 23.875 9.128906 23.855469 9.09375 Z M 23.855469 9.09375 "/>
<path style=" stroke:none;fill-rule:nonzero;fill:rgb(83.921569%,97.254902%,100%);fill-opacity:1;" d="M 24.5625 17.558594 C 24.574219 17.570312 24.566406 17.589844 24.539062 17.617188 C 24.527344 17.601562 24.535156 17.585938 24.5625 17.558594 Z M 24.5625 17.558594 "/>
<path style=" stroke:none;fill-rule:nonzero;fill:rgb(83.921569%,97.254902%,100%);fill-opacity:1;" d="M 24.421875 17.785156 C 24.433594 17.796875 24.421875 17.820312 24.390625 17.839844 C 24.378906 17.828125 24.390625 17.808594 24.421875 17.785156 Z M 24.421875 17.785156 "/>
<path style=" stroke:none;fill-rule:nonzero;fill:rgb(83.921569%,97.254902%,100%);fill-opacity:1;" d="M 25.242188 15.988281 C 25.25 16 25.246094 16.027344 25.226562 16.066406 C 25.21875 16.054688 25.226562 16.03125 25.242188 15.988281 Z M 25.242188 15.988281 "/>
<path style=" stroke:none;fill-rule:nonzero;fill:rgb(83.921569%,97.254902%,100%);fill-opacity:1;" d="M 24.273438 18.011719 C 24.289062 18.023438 24.277344 18.046875 24.242188 18.070312 C 24.234375 18.054688 24.246094 18.035156 24.273438 18.011719 Z M 24.273438 18.011719 "/>
<path style=" stroke:none;fill-rule:nonzero;fill:rgb(83.921569%,97.254902%,100%);fill-opacity:1;" d="M 24.210938 18.085938 C 24.214844 18.097656 24.203125 18.121094 24.171875 18.152344 C 24.164062 18.132812 24.179688 18.113281 24.210938 18.085938 Z M 24.210938 18.085938 "/>
<path style=" stroke:none;fill-rule:nonzero;fill:rgb(83.921569%,97.254902%,100%);fill-opacity:1;" d="M 13.476562 5.976562 C 13.480469 5.964844 13.503906 5.949219 13.554688 5.941406 C 13.550781 5.953125 13.523438 5.964844 13.476562 5.976562 Z M 13.476562 5.976562 "/>
<path style=" stroke:none;fill-rule:nonzero;fill:rgb(83.921569%,97.254902%,100%);fill-opacity:1;" d="M 22.0625 7.4375 C 22.074219 7.433594 22.097656 7.445312 22.128906 7.472656 C 22.117188 7.480469 22.09375 7.464844 22.0625 7.4375 Z M 22.0625 7.4375 "/>
<path style=" stroke:none;fill-rule:nonzero;fill:rgb(83.921569%,97.254902%,100%);fill-opacity:1;" d="M 21.984375 7.382812 C 22 7.367188 22.019531 7.378906 22.042969 7.410156 C 22.027344 7.421875 22.011719 7.410156 21.984375 7.382812 Z M 21.984375 7.382812 "/>
<path style=" stroke:none;fill-rule:nonzero;fill:rgb(83.921569%,97.254902%,100%);fill-opacity:1;" d="M 23.605469 18.832031 C 23.617188 18.851562 23.605469 18.871094 23.570312 18.894531 C 23.558594 18.878906 23.574219 18.859375 23.605469 18.832031 Z M 23.605469 18.832031 "/>
<path style=" stroke:none;fill-rule:nonzero;fill:rgb(83.921569%,97.254902%,100%);fill-opacity:1;" d="M 23.535156 18.910156 C 23.550781 18.902344 23.550781 18.9375 23.546875 18.953125 C 23.542969 18.96875 23.511719 18.976562 23.496094 18.980469 C 23.492188 18.960938 23.507812 18.941406 23.535156 18.910156 Z M 23.535156 18.910156 "/>
<path style=" stroke:none;fill-rule:nonzero;fill:rgb(83.921569%,97.254902%,100%);fill-opacity:1;" d="M 9.226562 7.414062 C 9.226562 7.402344 9.246094 7.386719 9.28125 7.367188 C 9.285156 7.386719 9.265625 7.398438 9.226562 7.414062 Z M 9.226562 7.414062 "/>
<path style=" stroke:none;fill-rule:nonzero;fill:rgb(83.921569%,97.254902%,100%);fill-opacity:1;" d="M 9.375 7.339844 C 9.375 7.328125 9.394531 7.3125 9.433594 7.292969 C 9.4375 7.3125 9.417969 7.324219 9.375 7.339844 Z M 9.375 7.339844 "/>
<path style=" stroke:none;fill-rule:nonzero;fill:rgb(83.921569%,97.254902%,100%);fill-opacity:1;" d="M 23.925781 9.179688 C 23.917969 9.164062 23.949219 9.167969 23.960938 9.171875 C 23.976562 9.175781 23.976562 9.199219 23.976562 9.214844 C 23.957031 9.21875 23.941406 9.207031 23.925781 9.179688 Z M 23.925781 9.179688 "/>
<path style=" stroke:none;fill-rule:nonzero;fill:rgb(83.921569%,97.254902%,100%);fill-opacity:1;" d="M 24.015625 9.300781 C 24.027344 9.300781 24.046875 9.316406 24.070312 9.355469 C 24.058594 9.355469 24.039062 9.335938 24.015625 9.300781 Z M 24.015625 9.300781 "/>
<path style=" stroke:none;fill-rule:nonzero;fill:rgb(83.921569%,97.254902%,100%);fill-opacity:1;" d="M 20.414062 6.550781 C 20.425781 6.542969 20.453125 6.550781 20.496094 6.570312 C 20.484375 6.578125 20.460938 6.570312 20.414062 6.550781 Z M 20.414062 6.550781 "/>
<path style=" stroke:none;fill-rule:nonzero;fill:rgb(83.921569%,97.254902%,100%);fill-opacity:1;" d="M 22.992188 8.117188 C 23.003906 8.121094 23.011719 8.148438 23.011719 8.164062 C 22.992188 8.171875 22.976562 8.160156 22.957031 8.132812 C 22.949219 8.117188 22.976562 8.117188 22.992188 8.117188 Z M 22.992188 8.117188 "/>
<path style=" stroke:none;fill-rule:nonzero;fill:rgb(83.921569%,97.254902%,100%);fill-opacity:1;" d="M 23.257812 8.417969 C 23.273438 8.410156 23.292969 8.421875 23.316406 8.460938 C 23.300781 8.46875 23.28125 8.453125 23.257812 8.417969 Z M 23.257812 8.417969 "/>
<path style=" stroke:none;fill-rule:nonzero;fill:rgb(83.921569%,97.254902%,100%);fill-opacity:1;" d="M 25.0625 11.257812 C 25.085938 11.246094 25.097656 11.265625 25.105469 11.308594 C 25.085938 11.3125 25.074219 11.292969 25.0625 11.257812 Z M 25.0625 11.257812 "/>
<path style=" stroke:none;fill-rule:nonzero;fill:rgb(83.921569%,97.254902%,100%);fill-opacity:1;" d="M 23.332031 8.492188 C 23.347656 8.484375 23.367188 8.496094 23.386719 8.535156 C 23.371094 8.542969 23.351562 8.527344 23.332031 8.492188 Z M 23.332031 8.492188 "/>
<path style=" stroke:none;fill-rule:nonzero;fill:rgb(83.921569%,97.254902%,100%);fill-opacity:1;" d="M 24.644531 10.210938 C 24.65625 10.21875 24.65625 10.25 24.652344 10.265625 C 24.632812 10.265625 24.617188 10.25 24.605469 10.214844 C 24.601562 10.199219 24.628906 10.207031 24.644531 10.210938 Z M 24.644531 10.210938 "/>
<path style=" stroke:none;fill-rule:nonzero;fill:rgb(83.921569%,97.254902%,100%);fill-opacity:1;" d="M 11.167969 6.585938 C 11.171875 6.574219 11.191406 6.5625 11.230469 6.546875 C 11.234375 6.5625 11.210938 6.578125 11.167969 6.585938 Z M 11.167969 6.585938 "/>
<path style=" stroke:none;fill-rule:nonzero;fill:rgb(83.921569%,97.254902%,100%);fill-opacity:1;" d="M 11.398438 6.515625 C 11.398438 6.503906 11.417969 6.488281 11.457031 6.472656 C 11.460938 6.492188 11.4375 6.503906 11.398438 6.515625 Z M 11.398438 6.515625 "/>
<path style=" stroke:none;fill-rule:nonzero;fill:rgb(83.921569%,97.254902%,100%);fill-opacity:1;" d="M 23.785156 9.007812 C 23.796875 9.007812 23.816406 9.023438 23.839844 9.058594 C 23.824219 9.0625 23.808594 9.046875 23.785156 9.007812 Z M 23.785156 9.007812 "/>
</g>
</svg>
